<svg width="10" height="8" viewBox="0 0 10 8" fill="none" xmlns="http://www.w3.org/2000/svg">
<path d="M9.57541 0.371949C9.76288 0.559477 9.86819 0.813785 9.86819 1.07895C9.86819 1.34411 9.76288 1.59842 9.57541 1.78595L4.57541 6.78595C4.38788 6.97342 4.13357 7.07874 3.86841 7.07874C3.60324 7.07874 3.34894 6.97342 3.16141 6.78595L1.16141 4.78595C0.979249 4.59735 0.878455 4.34474 0.880733 4.08255C0.883012 3.82035 0.988181 3.56954 1.17359 3.38413C1.359 3.19872 1.60981 3.09355 1.87201 3.09127C2.1342 3.089 2.3868 3.18979 2.57541 3.37195L3.86841 4.66495L8.16141 0.371949C8.34894 0.184478 8.60324 0.0791626 8.86841 0.0791626C9.13357 0.0791626 9.38788 0.184478 9.57541 0.371949Z" fill="#9D174D"/>
</svg>
