<svg width="32" height="32" viewBox="0 0 32 32" fill="none" xmlns="http://www.w3.org/2000/svg">
<path fill-rule="evenodd" clip-rule="evenodd" d="M12.6842 6.31579C9.19608 6.31579 6.36841 9.14347 6.36841 12.6316C6.36841 16.1197 9.19608 18.9474 12.6842 18.9474C16.1723 18.9474 19 16.1197 19 12.6316C19 9.14347 16.1723 6.31579 12.6842 6.31579ZM3.21051 12.6316C3.21051 7.39941 7.45202 3.1579 12.6842 3.1579C17.9164 3.1579 22.1579 7.39941 22.1579 12.6316C22.1579 14.6776 21.5093 16.5722 20.4064 18.1208L28.0112 25.7256C28.6278 26.3422 28.6278 27.342 28.0112 27.9586C27.3946 28.5752 26.3949 28.5752 25.7782 27.9586L18.1735 20.3538C16.6248 21.4567 14.7302 22.1053 12.6842 22.1053C7.45202 22.1053 3.21051 17.8638 3.21051 12.6316Z" fill="#D1D5DB"/>
</svg>
