<?xml version="1.0" encoding="utf-8"?>
<!-- Generator: Adobe Illustrator 26.2.1, SVG Export Plug-In . SVG Version: 6.00 Build 0)  -->
<svg version="1.1" id="Layer_1" xmlns="http://www.w3.org/2000/svg" xmlns:xlink="http://www.w3.org/1999/xlink" x="0px" y="0px"
	 viewBox="0 0 14 15" style="enable-background:new 0 0 14 15;" xml:space="preserve">
<style type="text/css">
	.st0{fill-rule:evenodd;clip-rule:evenodd;fill:#1E3A8A;}
</style>
<path class="st0" d="M0,1.6c0-0.6,0.4-1,1-1h12c0.6,0,1,0.4,1,1c0,0.6-0.4,1-1,1H1C0.4,2.6,0,2.1,0,1.6z M0,5.6c0-0.6,0.4-1,1-1h12
	c0.6,0,1,0.4,1,1c0,0.6-0.4,1-1,1H1C0.4,6.6,0,6.1,0,5.6z M0,9.6c0-0.6,0.4-1,1-1h12c0.6,0,1,0.4,1,1c0,0.6-0.4,1-1,1H1
	C0.4,10.6,0,10.1,0,9.6z M0,13.6c0-0.6,0.4-1,1-1h12c0.6,0,1,0.4,1,1c0,0.6-0.4,1-1,1H1C0.4,14.6,0,14.1,0,13.6z"/>
</svg>
