<svg width="34" height="35" viewBox="0 0 34 35" fill="none" xmlns="http://www.w3.org/2000/svg">
<path d="M0 17.5789C0 8.19011 7.61116 0.578949 17 0.578949V0.578949C26.3888 0.578949 34 8.19011 34 17.5789V17.5789C34 26.9678 26.3888 34.5789 17 34.5789V34.5789C7.61116 34.5789 0 26.9678 0 17.5789V17.5789Z" fill="#DB2777"/>
<path fill-rule="evenodd" clip-rule="evenodd" d="M17 25.5789C21.4183 25.5789 25 21.9972 25 17.5789C25 13.1607 21.4183 9.57895 17 9.57895C12.5817 9.57895 9 13.1607 9 17.5789C9 21.9972 12.5817 25.5789 17 25.5789ZM16.5547 14.7469C16.2478 14.5423 15.8533 14.5233 15.5281 14.6973C15.203 14.8713 15 15.2102 15 15.579V19.579C15 19.9477 15.203 20.2866 15.5281 20.4606C15.8533 20.6346 16.2478 20.6156 16.5547 20.411L19.5547 18.411C19.8329 18.2255 20 17.9133 20 17.579C20 17.2446 19.8329 16.9324 19.5547 16.7469L16.5547 14.7469Z" fill="white"/>
</svg>
