<svg width="14" height="15" viewBox="0 0 14 15" fill="none" xmlns="http://www.w3.org/2000/svg">
<path d="M2 0.578949C0.895431 0.578949 0 1.47438 0 2.57895V4.57895C0 5.68352 0.89543 6.57895 2 6.57895H4C5.10457 6.57895 6 5.68352 6 4.57895V2.57895C6 1.47438 5.10457 0.578949 4 0.578949H2Z" fill="#1E3A8A"/>
<path d="M2 8.57895C0.895431 8.57895 0 9.47438 0 10.5789V12.5789C0 13.6835 0.89543 14.5789 2 14.5789H4C5.10457 14.5789 6 13.6835 6 12.5789V10.5789C6 9.47438 5.10457 8.57895 4 8.57895H2Z" fill="#1E3A8A"/>
<path d="M8 2.57895C8 1.47438 8.89543 0.578949 10 0.578949H12C13.1046 0.578949 14 1.47438 14 2.57895V4.57895C14 5.68352 13.1046 6.57895 12 6.57895H10C8.89543 6.57895 8 5.68352 8 4.57895V2.57895Z" fill="#1E3A8A"/>
<path d="M8 10.5789C8 9.47438 8.89543 8.57895 10 8.57895H12C13.1046 8.57895 14 9.47438 14 10.5789V12.5789C14 13.6835 13.1046 14.5789 12 14.5789H10C8.89543 14.5789 8 13.6835 8 12.5789V10.5789Z" fill="#1E3A8A"/>
</svg>
