<svg width="14" height="15" viewBox="0 0 14 15" fill="none" xmlns="http://www.w3.org/2000/svg">
<path fill-rule="evenodd" clip-rule="evenodd" d="M0 1.57895C0 1.02666 0.447715 0.578949 1 0.578949H13C13.5523 0.578949 14 1.02666 14 1.57895C14 2.13123 13.5523 2.57895 13 2.57895H1C0.447715 2.57895 0 2.13123 0 1.57895ZM0 5.57895C0 5.02666 0.447715 4.57895 1 4.57895H13C13.5523 4.57895 14 5.02666 14 5.57895C14 6.13123 13.5523 6.57895 13 6.57895H1C0.447715 6.57895 0 6.13123 0 5.57895ZM0 9.57895C0 9.02666 0.447715 8.57895 1 8.57895H13C13.5523 8.57895 14 9.02666 14 9.57895C14 10.1312 13.5523 10.5789 13 10.5789H1C0.447715 10.5789 0 10.1312 0 9.57895ZM0 13.5789C0 13.0267 0.447715 12.5789 1 12.5789H13C13.5523 12.5789 14 13.0267 14 13.5789C14 14.1312 13.5523 14.5789 13 14.5789H1C0.447715 14.5789 0 14.1312 0 13.5789Z" fill="#A5B4FC"/>
</svg>
