<svg width="332" height="96" viewBox="0 0 332 96" fill="none" xmlns="http://www.w3.org/2000/svg">
<g clip-path="url(#clip0_9_3509)">
<path d="M45.7868 78.105C62.4133 78.105 75.8918 64.6265 75.8918 48C75.8918 31.3735 62.4133 17.895 45.7868 17.895C29.1603 17.895 15.6818 31.3735 15.6818 48C15.6818 64.6265 29.1603 78.105 45.7868 78.105Z" fill="#0B3D91"/>
<path d="M44.0093 24.015C44.1957 24.015 44.3468 23.8639 44.3468 23.6775C44.3468 23.4911 44.1957 23.34 44.0093 23.34C43.8229 23.34 43.6718 23.4911 43.6718 23.6775C43.6718 23.8639 43.8229 24.015 44.0093 24.015Z" fill="white"/>
<path d="M47.4743 24.465C47.6607 24.465 47.8118 24.3139 47.8118 24.1275C47.8118 23.9411 47.6607 23.79 47.4743 23.79C47.2879 23.79 47.1368 23.9411 47.1368 24.1275C47.1368 24.3139 47.2879 24.465 47.4743 24.465Z" fill="white"/>
<path d="M52.0193 30.585C52.2057 30.585 52.3568 30.4339 52.3568 30.2475C52.3568 30.0611 52.2057 29.91 52.0193 29.91C51.8329 29.91 51.6818 30.0611 51.6818 30.2475C51.6818 30.4339 51.8329 30.585 52.0193 30.585Z" fill="white"/>
<path d="M27.0893 62.085C27.2757 62.085 27.4268 61.9339 27.4268 61.7475C27.4268 61.5611 27.2757 61.41 27.0893 61.41C26.9029 61.41 26.7518 61.5611 26.7518 61.7475C26.7518 61.9339 26.9029 62.085 27.0893 62.085Z" fill="white"/>
<path d="M27.9668 64.785C28.1532 64.785 28.3043 64.6339 28.3043 64.4475C28.3043 64.2611 28.1532 64.11 27.9668 64.11C27.7804 64.11 27.6293 64.2611 27.6293 64.4475C27.6293 64.6339 27.7804 64.785 27.9668 64.785Z" fill="white"/>
<path d="M23.7818 62.4052C23.9214 62.4052 24.0345 62.2921 24.0345 62.1525C24.0345 62.0129 23.9214 61.8997 23.7818 61.8997C23.6422 61.8997 23.529 62.0129 23.529 62.1525C23.529 62.2921 23.6422 62.4052 23.7818 62.4052Z" fill="white"/>
<path d="M37.5068 67.71C37.6468 67.71 37.7603 67.5965 37.7603 67.4565C37.7603 67.3165 37.6468 67.203 37.5068 67.203C37.3668 67.203 37.2533 67.3165 37.2533 67.4565C37.2533 67.5965 37.3668 67.71 37.5068 67.71Z" fill="white"/>
<path d="M59.0333 63.2377C59.1729 63.2377 59.2861 63.1246 59.2861 62.985C59.2861 62.8454 59.1729 62.7322 59.0333 62.7322C58.8937 62.7322 58.7806 62.8454 58.7806 62.985C58.7806 63.1246 58.8937 63.2377 59.0333 63.2377Z" fill="white"/>
<path d="M65.2891 56.4435C65.4291 56.4435 65.5426 56.33 65.5426 56.19C65.5426 56.05 65.4291 55.9365 65.2891 55.9365C65.1491 55.9365 65.0356 56.05 65.0356 56.19C65.0356 56.33 65.1491 56.4435 65.2891 56.4435Z" fill="white"/>
<path d="M34.6268 32.4742C34.7664 32.4742 34.8796 32.3611 34.8796 32.2215C34.8796 32.0819 34.7664 31.9688 34.6268 31.9688C34.4872 31.9688 34.3741 32.0819 34.3741 32.2215C34.3741 32.3611 34.4872 32.4742 34.6268 32.4742Z" fill="white"/>
<path d="M41.5118 27.4177C41.6514 27.4177 41.7645 27.3046 41.7645 27.165C41.7645 27.0254 41.6514 26.9122 41.5118 26.9122C41.3722 26.9122 41.259 27.0254 41.259 27.165C41.259 27.3046 41.3722 27.4177 41.5118 27.4177Z" fill="white"/>
<path d="M40.7641 26.9227C40.9037 26.9227 41.0168 26.8096 41.0168 26.67C41.0168 26.5304 40.9037 26.4172 40.7641 26.4172C40.6245 26.4172 40.5113 26.5304 40.5113 26.67C40.5113 26.8096 40.6245 26.9227 40.7641 26.9227Z" fill="white"/>
<path d="M40.0891 26.4277C40.2286 26.4277 40.3418 26.3146 40.3418 26.175C40.3418 26.0354 40.2286 25.9222 40.0891 25.9222C39.9495 25.9222 39.8363 26.0354 39.8363 26.175C39.8363 26.3146 39.9495 26.4277 40.0891 26.4277Z" fill="white"/>
<path d="M35.7068 33.78C35.8464 33.78 35.9595 33.6668 35.9595 33.5273C35.9595 33.3877 35.8464 33.2745 35.7068 33.2745C35.5672 33.2745 35.454 33.3877 35.454 33.5273C35.454 33.6668 35.5672 33.78 35.7068 33.78Z" fill="white"/>
<path d="M45.8483 20.6227C45.9879 20.6227 46.101 20.5096 46.101 20.37C46.101 20.2304 45.9879 20.1172 45.8483 20.1172C45.7087 20.1172 45.5955 20.2304 45.5955 20.37C45.5955 20.5096 45.7087 20.6227 45.8483 20.6227Z" fill="white"/>
<path d="M47.5141 27.9128C47.6537 27.9128 47.7668 27.7996 47.7668 27.66C47.7668 27.5204 47.6537 27.4073 47.5141 27.4073C47.3745 27.4073 47.2613 27.5204 47.2613 27.66C47.2613 27.7996 47.3745 27.9128 47.5141 27.9128Z" fill="white"/>
<path d="M44.8868 26.4892C45.0264 26.4892 45.1395 26.3761 45.1395 26.2365C45.1395 26.0969 45.0264 25.9837 44.8868 25.9837C44.7472 25.9837 44.634 26.0969 44.634 26.2365C44.634 26.3761 44.7472 26.4892 44.8868 26.4892Z" fill="white"/>
<path d="M40.3868 28.425C40.5264 28.425 40.6395 28.3118 40.6395 28.1722C40.6395 28.0327 40.5264 27.9195 40.3868 27.9195C40.2472 27.9195 40.134 28.0327 40.134 28.1722C40.134 28.3118 40.2472 28.425 40.3868 28.425Z" fill="white"/>
<path d="M60.2318 69.915C60.3714 69.915 60.4846 69.8018 60.4846 69.6622C60.4846 69.5226 60.3714 69.4095 60.2318 69.4095C60.0923 69.4095 59.9791 69.5226 59.9791 69.6622C59.9791 69.8018 60.0923 69.915 60.2318 69.915Z" fill="white"/>
<path d="M26.6618 63.711C26.8018 63.711 26.9153 63.5975 26.9153 63.4575C26.9153 63.3175 26.8018 63.204 26.6618 63.204C26.5218 63.204 26.4083 63.3175 26.4083 63.4575C26.4083 63.5975 26.5218 63.711 26.6618 63.711Z" fill="white"/>
<path d="M44.2568 66.9735C44.3968 66.9735 44.5103 66.86 44.5103 66.72C44.5103 66.58 44.3968 66.4665 44.2568 66.4665C44.1168 66.4665 44.0033 66.58 44.0033 66.72C44.0033 66.86 44.1168 66.9735 44.2568 66.9735Z" fill="white"/>
<path d="M31.8983 63.5085C32.0383 63.5085 32.1518 63.395 32.1518 63.255C32.1518 63.115 32.0383 63.0015 31.8983 63.0015C31.7583 63.0015 31.6448 63.115 31.6448 63.255C31.6448 63.395 31.7583 63.5085 31.8983 63.5085Z" fill="white"/>
<path d="M34.0868 67.0808C34.2268 67.0808 34.3403 66.9673 34.3403 66.8273C34.3403 66.6873 34.2268 66.5738 34.0868 66.5738C33.9468 66.5738 33.8333 66.6873 33.8333 66.8273C33.8333 66.9673 33.9468 67.0808 34.0868 67.0808Z" fill="white"/>
<path d="M50.1968 64.83C50.3364 64.83 50.4496 64.7168 50.4496 64.5772C50.4496 64.4377 50.3364 64.3245 50.1968 64.3245C50.0573 64.3245 49.9441 64.4377 49.9441 64.5772C49.9441 64.7168 50.0573 64.83 50.1968 64.83Z" fill="white"/>
<path d="M59.0783 59.8178C59.2179 59.8178 59.331 59.7046 59.331 59.565C59.331 59.4254 59.2179 59.3123 59.0783 59.3123C58.9387 59.3123 58.8255 59.4254 58.8255 59.565C58.8255 59.7046 58.9387 59.8178 59.0783 59.8178Z" fill="white"/>
<path d="M65.8118 62.8942C65.9514 62.8942 66.0645 62.7811 66.0645 62.6415C66.0645 62.5019 65.9514 62.3887 65.8118 62.3887C65.6722 62.3887 65.5591 62.5019 65.5591 62.6415C65.5591 62.7811 65.6722 62.8942 65.8118 62.8942Z" fill="white"/>
<path d="M68.1068 64.3627C68.2464 64.3627 68.3596 64.2496 68.3596 64.11C68.3596 63.9704 68.2464 63.8572 68.1068 63.8572C67.9673 63.8572 67.8541 63.9704 67.8541 64.11C67.8541 64.2496 67.9673 64.3627 68.1068 64.3627Z" fill="white"/>
<path d="M68.484 60.3578C68.6236 60.3578 68.7368 60.2446 68.7368 60.105C68.7368 59.9654 68.6236 59.8523 68.484 59.8523C68.3445 59.8523 68.2313 59.9654 68.2313 60.105C68.2313 60.2446 68.3445 60.3578 68.484 60.3578Z" fill="white"/>
<path d="M35.0033 54.6878C35.1429 54.6878 35.256 54.5746 35.256 54.435C35.256 54.2954 35.1429 54.1823 35.0033 54.1823C34.8637 54.1823 34.7505 54.2954 34.7505 54.435C34.7505 54.5746 34.8637 54.6878 35.0033 54.6878Z" fill="white"/>
<path d="M35.0993 60.5775C35.2857 60.5775 35.4368 60.4264 35.4368 60.24C35.4368 60.0536 35.2857 59.9025 35.0993 59.9025C34.9129 59.9025 34.7618 60.0536 34.7618 60.24C34.7618 60.4264 34.9129 60.5775 35.0993 60.5775Z" fill="white"/>
<path d="M37.1243 64.8525C37.3107 64.8525 37.4618 64.7014 37.4618 64.515C37.4618 64.3286 37.3107 64.1775 37.1243 64.1775C36.9379 64.1775 36.7868 64.3286 36.7868 64.515C36.7868 64.7014 36.9379 64.8525 37.1243 64.8525Z" fill="white"/>
<path d="M61.3793 60.3975C61.5657 60.3975 61.7168 60.2464 61.7168 60.06C61.7168 59.8736 61.5657 59.7225 61.3793 59.7225C61.1929 59.7225 61.0418 59.8736 61.0418 60.06C61.0418 60.2464 61.1929 60.3975 61.3793 60.3975Z" fill="white"/>
<path d="M70.1093 59.9025C70.2957 59.9025 70.4469 59.7514 70.4469 59.565C70.4469 59.3786 70.2957 59.2275 70.1093 59.2275C69.923 59.2275 69.7719 59.3786 69.7719 59.565C69.7719 59.7514 69.923 59.9025 70.1093 59.9025Z" fill="white"/>
<path d="M65.7893 58.0575C65.9757 58.0575 66.1268 57.9064 66.1268 57.72C66.1268 57.5336 65.9757 57.3825 65.7893 57.3825C65.603 57.3825 65.4518 57.5336 65.4518 57.72C65.4518 57.9064 65.603 58.0575 65.7893 58.0575Z" fill="white"/>
<path d="M61.3793 58.2375C61.5657 58.2375 61.7168 58.0864 61.7168 57.9C61.7168 57.7136 61.5657 57.5625 61.3793 57.5625C61.1929 57.5625 61.0418 57.7136 61.0418 57.9C61.0418 58.0864 61.1929 58.2375 61.3793 58.2375Z" fill="white"/>
<path d="M52.2826 23.466L53.1218 23.3857L52.2841 23.3385C52.2578 23.1765 52.1281 23.0497 51.9646 23.0287L51.8843 22.1932L51.8363 23.0355C51.6848 23.0692 51.5686 23.196 51.5498 23.3535L50.6918 23.4315L51.5558 23.478C51.5873 23.6227 51.7043 23.736 51.8513 23.763L51.9293 24.624L51.9751 23.7645C52.1303 23.7382 52.2533 23.619 52.2826 23.466Z" fill="white"/>
<path d="M38.1181 32.8095L38.9573 32.7292L38.1196 32.682C38.0941 32.52 37.9636 32.3932 37.8001 32.3722L37.7198 31.5367L37.6726 32.379C37.5203 32.4127 37.4041 32.5395 37.3853 32.697L36.5273 32.775L37.3913 32.8215C37.4228 32.9662 37.5398 33.0795 37.6868 33.1065L37.7648 33.9675L37.8113 33.108C37.9666 33.0825 38.0896 32.9625 38.1181 32.8095Z" fill="white"/>
<path d="M69.4944 57.513L70.3336 57.4327L69.4959 57.3855C69.4704 57.2235 69.3399 57.0967 69.1764 57.0757L69.0961 56.2402L69.0489 57.0825C68.8974 57.1162 68.7811 57.243 68.7624 57.4005L67.9044 57.4785L68.7684 57.525C68.7999 57.6697 68.9169 57.783 69.0639 57.81L69.1419 58.671L69.1884 57.8115C69.3421 57.786 69.4651 57.6667 69.4944 57.513Z" fill="white"/>
<path d="M35.283 70.4295L36.1223 70.3493L35.2845 70.302C35.2583 70.14 35.1285 70.0133 34.965 69.9923L34.8848 69.1575L34.8375 69.999C34.6853 70.0328 34.569 70.1595 34.5503 70.317L33.6923 70.395L34.5563 70.4415C34.5878 70.5862 34.7048 70.7003 34.8518 70.7265L34.9298 71.5875L34.9763 70.728C35.1308 70.7025 35.2545 70.5825 35.283 70.4295Z" fill="white"/>
<path d="M66.8281 64.1295L67.6673 64.0493L66.8296 64.002C66.8041 63.84 66.6736 63.7132 66.5101 63.6922L66.4298 62.8568L66.3826 63.6983C66.2311 63.732 66.1148 63.8588 66.0961 64.0163L65.2381 64.0943L66.1021 64.1408C66.1336 64.2855 66.2506 64.3988 66.3976 64.4258L66.4756 65.2868L66.5221 64.4273C66.6758 64.4025 66.7996 64.2825 66.8281 64.1295Z" fill="white"/>
<path d="M52.9261 40.7887C49.4258 42.1492 46.0118 43.3635 43.1311 44.265C37.2773 46.098 21.2611 51.06 11.5861 57.315L12.3961 57.63C18.2911 54.3 22.1228 53.2537 25.8061 52.095C29.8111 50.835 42.7583 47.805 48.6211 46.155C50.6018 45.5977 52.9216 44.868 55.3786 43.98C54.8071 43.1827 54.2041 42.3832 53.5696 41.5852C53.3573 41.316 53.1421 41.0505 52.9261 40.7887ZM57.2026 46.683C56.3551 47.2552 55.6448 47.712 55.1476 48C52.2676 49.665 38.2268 59.25 35.0326 61.455C31.8383 63.66 22.9726 72.03 20.3626 74.46L20.2726 75.4492C28.6876 67.8892 31.3276 66.0247 34.6726 63.48C38.8126 60.33 47.3768 54.5025 50.2876 52.635C53.0701 50.85 55.5796 49.2082 57.8318 47.706C57.7951 47.6445 57.7583 47.583 57.7216 47.5207C57.5521 47.2425 57.3788 46.9635 57.2026 46.683ZM70.3568 32.79C66.2573 35.193 59.7961 38.0932 53.5276 40.554C53.6776 40.7377 53.8268 40.923 53.9753 41.1097C54.6758 41.9917 55.3366 42.8797 55.9583 43.7685C60.8858 41.9535 66.2926 39.5175 70.5826 36.5692C68.5388 38.5057 61.7821 43.5555 57.6623 46.3702C57.8746 46.716 58.0801 47.0617 58.2788 47.406C64.5203 43.2292 68.7203 40.155 71.1676 38.0992C74.5426 35.2642 82.2376 28.9192 85.1626 20.4142C80.0318 26.94 73.9658 30.6742 70.3568 32.79Z" fill="#FC3D21"/>
<path d="M41.9131 55.4542C41.2493 54.6187 40.3313 53.4997 39.6421 52.632C38.7203 51.4717 37.8676 50.2995 37.0861 49.1287C36.8311 49.1925 36.5768 49.2562 36.3226 49.32C37.2661 50.7922 38.3138 52.2622 39.4553 53.6992C40.2893 54.7492 41.0476 55.5945 41.4361 56.1202C41.5148 56.2267 41.6708 56.4622 41.8816 56.7757C42.1246 56.6107 42.3698 56.4442 42.6173 56.2762C42.3781 56.016 42.1418 55.7422 41.9131 55.4542ZM46.7581 59.8523C46.2128 59.3363 44.8906 58.4745 43.5143 57.1815C43.2106 57.39 42.9038 57.6015 42.5963 57.8145C43.4851 59.067 44.6956 60.6052 45.6436 61.0537C47.0716 61.7302 47.4563 60.5138 46.7581 59.8523ZM53.9753 41.1097C46.1063 31.2052 36.4936 25.764 32.3491 29.0572C29.1301 31.6147 30.4516 39.0892 34.8886 46.941C35.1181 46.8622 35.3453 46.785 35.5703 46.7085C31.0921 39.0585 29.8666 31.9492 32.9026 29.5365C36.7178 26.505 45.9301 31.9672 53.5711 41.5845C55.1528 43.575 56.5433 45.573 57.7208 47.5207C62.2298 54.9832 63.6136 61.7318 60.4981 64.4865C59.5448 65.3295 56.6318 65.6603 52.8158 63.9428C52.7626 64.0095 52.8481 64.1903 52.9148 64.2345C56.2088 65.559 59.3641 66.0638 60.9571 64.7985C64.7851 61.7565 61.8443 51.0142 53.9753 41.1097Z" fill="white"/>
<path d="M20.2268 42.285H25.2668L29.4968 49.4625C29.4968 49.4625 29.4968 44.265 29.4968 43.86C29.4968 43.23 28.6981 42.4088 28.4168 42.285C28.7543 42.285 31.7018 42.285 31.9043 42.285C31.6906 42.3413 31.0043 43.1738 31.0043 43.86C31.0043 44.1975 31.0043 51.735 31.0043 52.095C31.0043 52.6013 31.7356 53.2988 32.0843 53.5688H27.2243L22.9268 46.3575C22.9268 46.3575 22.9268 51.735 22.9268 52.0275C22.9268 52.59 23.4781 53.13 24.0518 53.5913H20.3393C20.8681 53.3663 21.3743 52.6575 21.4193 52.095C21.4643 51.5325 21.4193 44.2763 21.4193 43.9613C21.4193 43.275 20.7556 42.7125 20.2268 42.285Z" fill="white"/>
<path d="M66.3294 53.5688H73.0344C72.6631 53.4788 72.2469 53.04 72.0219 52.455C71.7969 51.87 68.2419 42.285 68.2419 42.285H65.6926C64.9696 42.8055 64.1949 43.3545 63.3676 43.9328C63.3654 43.9538 63.3631 43.9748 63.3594 43.995C63.2484 44.67 61.2534 51.8955 61.1319 52.2525C60.9631 52.7475 60.0969 53.2988 59.7481 53.5913H63.3594C62.9994 53.1863 62.7069 52.7925 62.7744 52.3425C62.8419 51.8925 63.0444 50.9925 63.0444 50.9925H66.7794C66.9481 51.4425 67.0741 51.8468 67.1394 52.23C67.2181 52.6913 66.7456 53.2088 66.3294 53.5688ZM63.3819 49.5525L64.6419 45.435L66.3069 49.5525H63.3819ZM62.8141 42.696C62.9994 42.5595 63.1854 42.4223 63.3706 42.285H62.3919C62.4894 42.375 62.6506 42.5168 62.8141 42.696Z" fill="white"/>
<path d="M37.1693 52.3425C37.2368 51.8925 37.4393 50.9925 37.4393 50.9925H41.1743C41.3431 51.4425 41.4691 51.8468 41.5343 52.23C41.6131 52.6913 41.1406 53.2088 40.7243 53.5688H46.6276C46.7506 53.4863 46.8728 53.4038 46.9951 53.322C46.7663 53.1195 46.5556 52.8158 46.4168 52.455C46.1918 51.87 42.6368 42.285 42.6368 42.285H36.7868C37.0681 42.5438 37.8781 43.2413 37.7543 43.995C37.6441 44.67 35.6483 51.8955 35.5268 52.2525C35.3581 52.7475 34.4918 53.2988 34.1431 53.5913H37.7543C37.3943 53.1863 37.1018 52.7925 37.1693 52.3425ZM39.0368 45.435L40.7018 49.5525H37.7768L39.0368 45.435Z" fill="white"/>
<path d="M57.5611 47.886C56.4601 48.6195 55.2983 49.3853 54.0743 50.1848C54.6233 50.451 55.0606 50.7855 55.1026 51.2175C55.1806 52.029 53.5501 52.4213 52.0764 52.2525C51.7816 52.2188 51.4921 52.1415 51.2161 52.038C50.9101 52.2353 50.6011 52.434 50.2876 52.635C49.9688 52.8398 49.5818 53.0918 49.1401 53.3828V54.5475C49.4326 53.9738 50.0723 53.46 50.5688 53.4338C50.7826 53.4225 51.5251 54.1088 54.5851 53.94C56.0701 53.8583 58.9389 52.275 58.8939 50.4525C58.8669 49.3755 58.3044 48.5355 57.5611 47.886ZM49.1394 50.7V51.8865C49.4101 51.7058 49.6771 51.528 49.9388 51.3548C49.5271 51.0683 49.2354 50.8005 49.1394 50.7ZM56.5148 47.1413C56.2298 46.9725 55.9411 46.8248 55.6644 46.6943C54.2244 46.0193 52.7168 45.8955 52.4018 44.9843C52.1798 44.3415 52.8069 43.7468 54.3369 43.7693C55.8669 43.7918 57.2843 44.703 57.6668 45.0293V42.1268C57.5543 42.2393 57.0608 42.8055 56.6093 42.7118C55.7431 42.5318 54.2694 42.297 52.5819 42.3068C50.6469 42.318 48.9819 43.8135 48.9256 45.7043C48.8469 48.348 50.9619 49.068 52.1544 49.4843C52.2774 49.527 52.4176 49.5728 52.5698 49.6215C53.7136 48.8775 54.6181 48.3045 55.1476 47.9993C55.5031 47.7945 55.9688 47.5005 56.5148 47.1413Z" fill="white"/>
</g>
<path d="M124.098 34.8182H119.381V52.6648H119.151L106.827 34.8182H102.582V61H107.325V43.1662H107.543L119.879 61H124.098V34.8182ZM132.628 61L134.789 54.544H144.632L146.806 61H151.868L142.638 34.8182H136.783L127.566 61H132.628ZM136.067 50.7344L139.608 40.1875H139.813L143.354 50.7344H136.067ZM169.124 42.0156H173.688C173.598 37.5923 169.827 34.4602 164.253 34.4602C158.756 34.4602 154.626 37.554 154.639 42.1818C154.639 45.9403 157.311 48.1009 161.619 49.2131L164.598 49.9801C167.423 50.696 169.29 51.5781 169.303 53.6108C169.29 55.848 167.168 57.3438 164.074 57.3438C161.108 57.3438 158.807 56.0142 158.615 53.2656H153.949C154.141 58.4688 158.014 61.3963 164.112 61.3963C170.389 61.3963 174.033 58.2642 174.045 53.6491C174.033 49.1108 170.287 47.0398 166.349 46.1065L163.895 45.4929C161.747 44.9815 159.42 44.0739 159.446 41.8878C159.459 39.919 161.223 38.4744 164.189 38.4744C167.014 38.4744 168.881 39.7912 169.124 42.0156ZM181.214 61L183.375 54.544H193.218L195.392 61H200.454L191.224 34.8182H185.369L176.152 61H181.214ZM184.653 50.7344L188.194 40.1875H188.399L191.94 50.7344H184.653ZM227.061 42.0156H231.625C231.536 37.5923 227.764 34.4602 222.19 34.4602C216.693 34.4602 212.564 37.554 212.577 42.1818C212.577 45.9403 215.249 48.1009 219.557 49.2131L222.536 49.9801C225.361 50.696 227.227 51.5781 227.24 53.6108C227.227 55.848 225.105 57.3438 222.011 57.3438C219.045 57.3438 216.744 56.0142 216.553 53.2656H211.886C212.078 58.4688 215.952 61.3963 222.05 61.3963C228.327 61.3963 231.97 58.2642 231.983 53.6491C231.97 49.1108 228.224 47.0398 224.287 46.1065L221.832 45.4929C219.685 44.9815 217.358 44.0739 217.384 41.8878C217.396 39.919 219.161 38.4744 222.126 38.4744C224.952 38.4744 226.818 39.7912 227.061 42.0156ZM244.7 61.3835C249.277 61.3835 252.422 59.1463 253.24 55.733L248.919 55.2472C248.292 56.9091 246.758 57.7784 244.764 57.7784C241.772 57.7784 239.791 55.8097 239.752 52.4474H253.431V51.0284C253.431 44.1378 249.289 41.108 244.457 41.108C238.832 41.108 235.163 45.2372 235.163 51.2969C235.163 57.4588 238.781 61.3835 244.7 61.3835ZM239.765 49.3281C239.906 46.8224 241.76 44.7131 244.521 44.7131C247.18 44.7131 248.97 46.6562 248.995 49.3281H239.765ZM262.997 61.3963C266.078 61.3963 267.919 59.9517 268.763 58.3026H268.916V61H273.365V47.858C273.365 42.6676 269.134 41.108 265.388 41.108C261.259 41.108 258.088 42.9489 257.065 46.5284L261.386 47.142C261.847 45.7997 263.151 44.6491 265.413 44.6491C267.561 44.6491 268.737 45.7486 268.737 47.679V47.7557C268.737 49.0852 267.344 49.1491 263.879 49.5199C260.07 49.929 256.426 51.0668 256.426 55.4901C256.426 59.3509 259.251 61.3963 262.997 61.3963ZM264.199 57.9957C262.268 57.9957 260.888 57.1136 260.888 55.4134C260.888 53.6364 262.435 52.8949 264.506 52.6009C265.72 52.4347 268.149 52.1278 268.75 51.642V53.956C268.75 56.142 266.986 57.9957 264.199 57.9957ZM278.018 61H282.646V49.456C282.646 46.9631 284.526 45.1989 287.07 45.1989C287.849 45.1989 288.821 45.3395 289.217 45.4673V41.2102C288.795 41.1335 288.067 41.0824 287.555 41.0824C285.305 41.0824 283.426 42.3608 282.71 44.6364H282.506V41.3636H278.018V61ZM300.049 61.3835C304.983 61.3835 308.128 58.456 308.461 54.2884H304.037C303.641 56.3977 302.12 57.6122 300.087 57.6122C297.198 57.6122 295.331 55.196 295.331 51.1818C295.331 47.2188 297.236 44.8409 300.087 44.8409C302.311 44.8409 303.679 46.2727 304.037 48.1648H308.461C308.141 43.9077 304.817 41.108 300.023 41.108C294.27 41.108 290.64 45.2628 290.64 51.2585C290.64 57.2031 294.181 61.3835 300.049 61.3835ZM316.888 49.4943C316.888 46.6562 318.653 45.0199 321.133 45.0199C323.562 45.0199 324.994 46.5668 324.994 49.2131V61H329.621V48.4972C329.621 43.7543 326.937 41.108 322.859 41.108C319.842 41.108 317.924 42.4759 317.016 44.7003H316.786V34.8182H312.261V61H316.888V49.4943Z" fill="white"/>
<defs>
<clipPath id="clip0_9_3509">
<rect width="74.25" height="61.5" fill="white" transform="translate(11.25 17.25)"/>
</clipPath>
</defs>
</svg>
