<?xml version="1.0" encoding="utf-8"?>
<!-- Generator: Adobe Illustrator 26.2.1, SVG Export Plug-In . SVG Version: 6.00 Build 0)  -->
<svg version="1.1" id="Layer_1" xmlns="http://www.w3.org/2000/svg" xmlns:xlink="http://www.w3.org/1999/xlink" x="0px" y="0px"
	 viewBox="0 0 322.7 66.9" style="enable-background:new 0 0 322.7 66.9;" xml:space="preserve">
<style type="text/css">
	.st0{clip-path:url(#SVGID_00000013883689853516385190000005506398353956059320_);}
	.st1{fill:#0B3D91;}
	.st2{fill:#FFFFFF;}
	.st3{fill:#FC3D21;}
</style>
<g>
	<defs>
		<rect id="SVGID_1_" x="1.9" y="2.7" width="74.2" height="61.5"/>
	</defs>
	<clipPath id="SVGID_00000162328384733535846300000014397489188824425908_">
		<use xlink:href="#SVGID_1_"  style="overflow:visible;"/>
	</clipPath>
	<g style="clip-path:url(#SVGID_00000162328384733535846300000014397489188824425908_);">
		<path class="st1" d="M36.5,63.6c16.6,0,30.1-13.5,30.1-30.1S53.1,3.4,36.5,3.4S6.4,16.8,6.4,33.5S19.8,63.6,36.5,63.6z"/>
		<path class="st2" d="M34.7,9.5c0.2,0,0.3-0.2,0.3-0.3s-0.2-0.3-0.3-0.3S34.4,9,34.4,9.1S34.5,9.5,34.7,9.5z"/>
		<path class="st2" d="M38.2,9.9c0.2,0,0.3-0.2,0.3-0.3c0-0.2-0.2-0.3-0.3-0.3s-0.3,0.2-0.3,0.3C37.8,9.8,38,9.9,38.2,9.9z"/>
		<path class="st2" d="M42.7,16c0.2,0,0.3-0.2,0.3-0.3c0-0.2-0.2-0.3-0.3-0.3c-0.2,0-0.3,0.2-0.3,0.3C42.4,15.9,42.5,16,42.7,16z"/>
		<path class="st2" d="M17.8,47.5c0.2,0,0.3-0.2,0.3-0.3c0-0.2-0.2-0.3-0.3-0.3s-0.3,0.2-0.3,0.3C17.4,47.4,17.6,47.5,17.8,47.5z"/>
		<path class="st2" d="M18.7,50.2c0.2,0,0.3-0.2,0.3-0.3s-0.2-0.3-0.3-0.3c-0.2,0-0.3,0.2-0.3,0.3S18.5,50.2,18.7,50.2z"/>
		<path class="st2" d="M14.5,47.9c0.1,0,0.3-0.1,0.3-0.3s-0.1-0.3-0.3-0.3c-0.1,0-0.3,0.1-0.3,0.3S14.3,47.9,14.5,47.9z"/>
		<path class="st2" d="M28.2,53.2c0.1,0,0.3-0.1,0.3-0.3s-0.1-0.3-0.3-0.3c-0.1,0-0.3,0.1-0.3,0.3S28.1,53.2,28.2,53.2z"/>
		<path class="st2" d="M49.7,48.7c0.1,0,0.3-0.1,0.3-0.3s-0.1-0.3-0.3-0.3c-0.1,0-0.3,0.1-0.3,0.3S49.6,48.7,49.7,48.7z"/>
		<path class="st2" d="M56,41.9c0.1,0,0.3-0.1,0.3-0.3c0-0.1-0.1-0.3-0.3-0.3s-0.3,0.1-0.3,0.3C55.7,41.8,55.8,41.9,56,41.9z"/>
		<path class="st2" d="M25.3,17.9c0.1,0,0.3-0.1,0.3-0.3s-0.1-0.3-0.3-0.3s-0.3,0.1-0.3,0.3S25.2,17.9,25.3,17.9z"/>
		<path class="st2" d="M32.2,12.9c0.1,0,0.3-0.1,0.3-0.3c0-0.1-0.1-0.3-0.3-0.3c-0.1,0-0.3,0.1-0.3,0.3
			C31.9,12.8,32.1,12.9,32.2,12.9z"/>
		<path class="st2" d="M31.4,12.4c0.1,0,0.3-0.1,0.3-0.3s-0.1-0.3-0.3-0.3c-0.1,0-0.3,0.1-0.3,0.3S31.3,12.4,31.4,12.4z"/>
		<path class="st2" d="M30.8,11.9c0.1,0,0.3-0.1,0.3-0.3c0-0.1-0.1-0.3-0.3-0.3c-0.1,0-0.3,0.1-0.3,0.3
			C30.5,11.8,30.6,11.9,30.8,11.9z"/>
		<path class="st2" d="M26.4,19.2c0.1,0,0.3-0.1,0.3-0.3c0-0.1-0.1-0.3-0.3-0.3c-0.1,0-0.3,0.1-0.3,0.3
			C26.1,19.1,26.3,19.2,26.4,19.2z"/>
		<path class="st2" d="M36.5,6.1c0.1,0,0.3-0.1,0.3-0.3c0-0.1-0.1-0.3-0.3-0.3c-0.1,0-0.3,0.1-0.3,0.3C36.3,6,36.4,6.1,36.5,6.1z"/>
		<path class="st2" d="M38.2,13.4c0.1,0,0.3-0.1,0.3-0.3s-0.1-0.3-0.3-0.3c-0.1,0-0.3,0.1-0.3,0.3S38.1,13.4,38.2,13.4z"/>
		<path class="st2" d="M35.6,11.9c0.1,0,0.3-0.1,0.3-0.3c0-0.1-0.1-0.3-0.3-0.3c-0.1,0-0.3,0.1-0.3,0.3
			C35.3,11.8,35.4,11.9,35.6,11.9z"/>
		<path class="st2" d="M31.1,13.9c0.1,0,0.3-0.1,0.3-0.3c0-0.1-0.1-0.3-0.3-0.3c-0.1,0-0.3,0.1-0.3,0.3
			C30.8,13.8,30.9,13.9,31.1,13.9z"/>
		<path class="st2" d="M50.9,55.4c0.1,0,0.3-0.1,0.3-0.3s-0.1-0.3-0.3-0.3c-0.1,0-0.3,0.1-0.3,0.3S50.8,55.4,50.9,55.4z"/>
		<path class="st2" d="M17.3,49.2c0.1,0,0.3-0.1,0.3-0.3s-0.1-0.3-0.3-0.3c-0.1,0-0.3,0.1-0.3,0.3S17.2,49.2,17.3,49.2z"/>
		<path class="st2" d="M34.9,52.4c0.1,0,0.3-0.1,0.3-0.3s-0.1-0.3-0.3-0.3c-0.1,0-0.3,0.1-0.3,0.3S34.8,52.4,34.9,52.4z"/>
		<path class="st2" d="M22.6,49c0.1,0,0.3-0.1,0.3-0.3s-0.1-0.3-0.3-0.3s-0.3,0.1-0.3,0.3S22.4,49,22.6,49z"/>
		<path class="st2" d="M24.8,52.5c0.1,0,0.3-0.1,0.3-0.3S24.9,52,24.8,52s-0.3,0.1-0.3,0.3S24.6,52.5,24.8,52.5z"/>
		<path class="st2" d="M40.9,50.3c0.1,0,0.3-0.1,0.3-0.3c0-0.1-0.1-0.3-0.3-0.3c-0.1,0-0.3,0.1-0.3,0.3
			C40.6,50.2,40.7,50.3,40.9,50.3z"/>
		<path class="st2" d="M49.8,45.3c0.1,0,0.3-0.1,0.3-0.3c0-0.1-0.1-0.3-0.3-0.3s-0.3,0.1-0.3,0.3C49.5,45.2,49.6,45.3,49.8,45.3z"/>
		<path class="st2" d="M56.5,48.4c0.1,0,0.3-0.1,0.3-0.3c0-0.1-0.1-0.3-0.3-0.3c-0.1,0-0.3,0.1-0.3,0.3
			C56.2,48.2,56.4,48.4,56.5,48.4z"/>
		<path class="st2" d="M58.8,49.8c0.1,0,0.3-0.1,0.3-0.3c0-0.1-0.1-0.3-0.3-0.3c-0.1,0-0.3,0.1-0.3,0.3
			C58.5,49.7,58.7,49.8,58.8,49.8z"/>
		<path class="st2" d="M59.2,45.8c0.1,0,0.3-0.1,0.3-0.3s-0.1-0.3-0.3-0.3c-0.1,0-0.3,0.1-0.3,0.3S59,45.8,59.2,45.8z"/>
		<path class="st2" d="M25.7,40.1c0.1,0,0.3-0.1,0.3-0.3c0-0.1-0.1-0.3-0.3-0.3s-0.3,0.1-0.3,0.3C25.4,40,25.5,40.1,25.7,40.1z"/>
		<path class="st2" d="M25.8,46c0.2,0,0.3-0.2,0.3-0.3c0-0.2-0.2-0.3-0.3-0.3s-0.3,0.2-0.3,0.3C25.4,45.9,25.6,46,25.8,46z"/>
		<path class="st2" d="M27.8,50.3c0.2,0,0.3-0.2,0.3-0.3s-0.2-0.3-0.3-0.3c-0.2,0-0.3,0.2-0.3,0.3S27.6,50.3,27.8,50.3z"/>
		<path class="st2" d="M52.1,45.9c0.2,0,0.3-0.2,0.3-0.3c0-0.2-0.2-0.3-0.3-0.3c-0.2,0-0.3,0.2-0.3,0.3
			C51.7,45.7,51.9,45.9,52.1,45.9z"/>
		<path class="st2" d="M60.8,45.4c0.2,0,0.3-0.2,0.3-0.3c0-0.2-0.2-0.3-0.3-0.3c-0.2,0-0.3,0.2-0.3,0.3
			C60.5,45.2,60.6,45.4,60.8,45.4z"/>
		<path class="st2" d="M56.5,43.5c0.2,0,0.3-0.2,0.3-0.3c0-0.2-0.2-0.3-0.3-0.3c-0.2,0-0.3,0.2-0.3,0.3
			C56.1,43.4,56.3,43.5,56.5,43.5z"/>
		<path class="st2" d="M52.1,43.7c0.2,0,0.3-0.2,0.3-0.3c0-0.2-0.2-0.3-0.3-0.3c-0.2,0-0.3,0.2-0.3,0.3
			C51.7,43.5,51.9,43.7,52.1,43.7z"/>
		<path class="st2" d="M43,8.9l0.8-0.1l-0.8,0c0-0.2-0.2-0.3-0.3-0.3l-0.1-0.8l0,0.8c-0.2,0-0.3,0.2-0.3,0.3l-0.9,0.1l0.9,0
			c0,0.1,0.1,0.3,0.3,0.3l0.1,0.9l0-0.9C42.8,9.2,42.9,9.1,43,8.9z"/>
		<path class="st2" d="M28.8,18.3l0.8-0.1l-0.8,0c0-0.2-0.2-0.3-0.3-0.3L28.4,17l0,0.8c-0.2,0-0.3,0.2-0.3,0.3l-0.9,0.1l0.9,0
			c0,0.1,0.1,0.3,0.3,0.3l0.1,0.9l0-0.9C28.7,18.5,28.8,18.4,28.8,18.3z"/>
		<path class="st2" d="M60.2,43l0.8-0.1l-0.8,0c0-0.2-0.2-0.3-0.3-0.3l-0.1-0.8l0,0.8c-0.2,0-0.3,0.2-0.3,0.3l-0.9,0.1l0.9,0
			c0,0.1,0.1,0.3,0.3,0.3l0.1,0.9l0-0.9C60,43.2,60.2,43.1,60.2,43z"/>
		<path class="st2" d="M26,55.9l0.8-0.1l-0.8,0c0-0.2-0.2-0.3-0.3-0.3l-0.1-0.8l0,0.8c-0.2,0-0.3,0.2-0.3,0.3l-0.9,0.1l0.9,0
			c0,0.1,0.1,0.3,0.3,0.3l0.1,0.9l0-0.9C25.8,56.2,25.9,56,26,55.9z"/>
		<path class="st2" d="M57.5,49.6l0.8-0.1l-0.8,0c0-0.2-0.2-0.3-0.3-0.3l-0.1-0.8l0,0.8c-0.2,0-0.3,0.2-0.3,0.3l-0.9,0.1l0.9,0
			c0,0.1,0.1,0.3,0.3,0.3l0.1,0.9l0-0.9C57.4,49.9,57.5,49.7,57.5,49.6z"/>
		<path class="st3" d="M43.6,26.2c-3.5,1.4-6.9,2.6-9.8,3.5C28,31.6,11.9,36.5,2.3,42.8l0.8,0.3c5.9-3.3,9.7-4.4,13.4-5.5
			c4-1.3,17-4.3,22.8-5.9c2-0.6,4.3-1.3,6.8-2.2c-0.6-0.8-1.2-1.6-1.8-2.4C44,26.8,43.8,26.5,43.6,26.2z M47.9,32.1
			c-0.8,0.6-1.6,1-2.1,1.3C43,35.1,28.9,44.7,25.7,46.9c-3.2,2.2-12.1,10.6-14.7,13l-0.1,1c8.4-7.6,11.1-9.4,14.4-12
			c4.1-3.1,12.7-9,15.6-10.8c2.8-1.8,5.3-3.4,7.5-4.9c0-0.1-0.1-0.1-0.1-0.2C48.2,32.7,48.1,32.4,47.9,32.1z M61,18.2
			c-4.1,2.4-10.6,5.3-16.8,7.8c0.2,0.2,0.3,0.4,0.4,0.6c0.7,0.9,1.4,1.8,2,2.7C51.6,27.4,57,25,61.3,22c-2,1.9-8.8,7-12.9,9.8
			c0.2,0.3,0.4,0.7,0.6,1c6.2-4.2,10.4-7.3,12.9-9.3c3.4-2.8,11.1-9.2,14-17.7C70.7,12.4,64.7,16.1,61,18.2z"/>
		<path class="st2" d="M32.6,40.9c-0.7-0.8-1.6-2-2.3-2.8c-0.9-1.2-1.8-2.3-2.6-3.5c-0.3,0.1-0.5,0.1-0.8,0.2c0.9,1.5,2,2.9,3.1,4.4
			c0.8,1,1.6,1.9,2,2.4c0.1,0.1,0.2,0.3,0.4,0.7c0.2-0.2,0.5-0.3,0.7-0.5C33.1,41.5,32.8,41.2,32.6,40.9z M37.4,45.3
			c-0.5-0.5-1.9-1.4-3.2-2.7c-0.3,0.2-0.6,0.4-0.9,0.6c0.9,1.3,2.1,2.8,3,3.2C37.8,47.2,38.1,46,37.4,45.3z M44.7,26.6
			C36.8,16.7,27.2,11.2,23,14.5c-3.2,2.6-1.9,10,2.5,17.9c0.2-0.1,0.5-0.2,0.7-0.2c-4.5-7.7-5.7-14.8-2.7-17.2c3.8-3,13,2.4,20.7,12
			c1.6,2,3,4,4.1,5.9c4.5,7.5,5.9,14.2,2.8,17c-1,0.8-3.9,1.2-7.7-0.5c-0.1,0.1,0,0.2,0.1,0.3c3.3,1.3,6.4,1.8,8,0.6
			C55.5,47.2,52.5,36.5,44.7,26.6z"/>
		<path class="st2" d="M10.9,27.7h5l4.2,7.2c0,0,0-5.2,0-5.6c0-0.6-0.8-1.5-1.1-1.6c0.3,0,3.3,0,3.5,0c-0.2,0.1-0.9,0.9-0.9,1.6
			c0,0.3,0,7.9,0,8.2c0,0.5,0.7,1.2,1.1,1.5h-4.9l-4.3-7.2c0,0,0,5.4,0,5.7c0,0.6,0.6,1.1,1.1,1.6H11c0.5-0.2,1-0.9,1.1-1.5
			s0-7.8,0-8.1C12.1,28.7,11.4,28.2,10.9,27.7z"/>
		<path class="st2" d="M57,39h6.7c-0.4-0.1-0.8-0.5-1-1.1c-0.2-0.6-3.8-10.2-3.8-10.2h-2.5c-0.7,0.5-1.5,1.1-2.3,1.6c0,0,0,0,0,0.1
			c-0.1,0.7-2.1,7.9-2.2,8.3c-0.2,0.5-1,1-1.4,1.3H54c-0.4-0.4-0.7-0.8-0.6-1.2c0.1-0.4,0.3-1.3,0.3-1.3h3.7
			c0.2,0.5,0.3,0.9,0.4,1.2C57.9,38.2,57.4,38.7,57,39z M54.1,35l1.3-4.1L57,35H54.1z M53.5,28.2c0.2-0.1,0.4-0.3,0.6-0.4h-1
			C53.2,27.8,53.3,28,53.5,28.2z"/>
		<path class="st2" d="M27.9,37.8c0.1-0.4,0.3-1.3,0.3-1.3h3.7c0.2,0.5,0.3,0.9,0.4,1.2c0.1,0.5-0.4,1-0.8,1.3h5.9
			c0.1-0.1,0.2-0.2,0.4-0.2c-0.2-0.2-0.4-0.5-0.6-0.9c-0.2-0.6-3.8-10.2-3.8-10.2h-5.8c0.3,0.3,1.1,1,1,1.7
			c-0.1,0.7-2.1,7.9-2.2,8.3c-0.2,0.5-1,1-1.4,1.3h3.6C28.1,38.6,27.8,38.3,27.9,37.8z M29.7,30.9l1.7,4.1h-2.9L29.7,30.9z"/>
		<path class="st2" d="M48.2,33.3c-1.1,0.7-2.3,1.5-3.5,2.3c0.5,0.3,1,0.6,1,1c0.1,0.8-1.6,1.2-3,1c-0.3,0-0.6-0.1-0.9-0.2
			c-0.3,0.2-0.6,0.4-0.9,0.6c-0.3,0.2-0.7,0.5-1.1,0.7V40c0.3-0.6,0.9-1.1,1.4-1.1c0.2,0,1,0.7,4,0.5c1.5-0.1,4.4-1.7,4.3-3.5
			C49.6,34.8,49,34,48.2,33.3z M39.8,36.2v1.2c0.3-0.2,0.5-0.4,0.8-0.5C40.2,36.5,39.9,36.3,39.8,36.2z M47.2,32.6
			c-0.3-0.2-0.6-0.3-0.9-0.4c-1.4-0.7-2.9-0.8-3.3-1.7c-0.2-0.6,0.4-1.2,1.9-1.2c1.5,0,2.9,0.9,3.3,1.3v-2.9
			c-0.1,0.1-0.6,0.7-1.1,0.6c-0.9-0.2-2.3-0.4-4-0.4c-1.9,0-3.6,1.5-3.7,3.4c-0.1,2.6,2,3.4,3.2,3.8c0.1,0,0.3,0.1,0.4,0.1
			c1.1-0.7,2-1.3,2.6-1.6C46.2,33.3,46.7,33,47.2,32.6z"/>
	</g>
</g>
<path class="st2" d="M114.8,20.3h-4.7v17.8h-0.2L97.5,20.3h-4.2v26.2H98V28.6h0.2l12.3,17.8h4.2V20.3z M123.3,46.5l2.2-6.5h9.8
	l2.2,6.5h5.1l-9.2-26.2h-5.9l-9.2,26.2H123.3z M126.8,36.2l3.5-10.5h0.2l3.5,10.5H126.8z M159.8,27.5h4.6c-0.1-4.4-3.9-7.6-9.4-7.6
	c-5.5,0-9.6,3.1-9.6,7.7c0,3.8,2.7,5.9,7,7l3,0.8c2.8,0.7,4.7,1.6,4.7,3.6c0,2.2-2.1,3.7-5.2,3.7c-3,0-5.3-1.3-5.5-4.1h-4.7
	c0.2,5.2,4.1,8.1,10.2,8.1c6.3,0,9.9-3.1,9.9-7.7c0-4.5-3.8-6.6-7.7-7.5l-2.5-0.6c-2.1-0.5-4.5-1.4-4.4-3.6c0-2,1.8-3.4,4.7-3.4
	C157.7,23.9,159.6,25.3,159.8,27.5z M171.9,46.5l2.2-6.5h9.8l2.2,6.5h5.1l-9.2-26.2h-5.9l-9.2,26.2H171.9z M175.3,36.2l3.5-10.5h0.2
	l3.5,10.5H175.3z M217.7,27.5h4.6c-0.1-4.4-3.9-7.6-9.4-7.6c-5.5,0-9.6,3.1-9.6,7.7c0,3.8,2.7,5.9,7,7l3,0.8
	c2.8,0.7,4.7,1.6,4.7,3.6c0,2.2-2.1,3.7-5.2,3.7c-3,0-5.3-1.3-5.5-4.1h-4.7c0.2,5.2,4.1,8.1,10.2,8.1c6.3,0,9.9-3.1,9.9-7.7
	c0-4.5-3.8-6.6-7.7-7.5l-2.5-0.6c-2.1-0.5-4.5-1.4-4.4-3.6c0-2,1.8-3.4,4.7-3.4C215.6,23.9,217.5,25.3,217.7,27.5z M235.4,46.8
	c4.6,0,7.7-2.2,8.5-5.7l-4.3-0.5c-0.6,1.7-2.2,2.5-4.2,2.5c-3,0-5-2-5-5.3h13.7v-1.4c0-6.9-4.1-9.9-9-9.9c-5.6,0-9.3,4.1-9.3,10.2
	C225.8,42.9,229.5,46.8,235.4,46.8z M230.5,34.8c0.1-2.5,2-4.6,4.8-4.6c2.7,0,4.4,1.9,4.5,4.6H230.5z M253.7,46.9
	c3.1,0,4.9-1.4,5.8-3.1h0.2v2.7h4.4V33.3c0-5.2-4.2-6.8-8-6.8c-4.1,0-7.3,1.8-8.3,5.4l4.3,0.6c0.5-1.3,1.8-2.5,4-2.5
	c2.1,0,3.3,1.1,3.3,3v0.1c0,1.3-1.4,1.4-4.9,1.8c-3.8,0.4-7.5,1.5-7.5,6C247.1,44.8,249.9,46.9,253.7,46.9z M254.9,43.5
	c-1.9,0-3.3-0.9-3.3-2.6c0-1.8,1.5-2.5,3.6-2.8c1.2-0.2,3.6-0.5,4.2-1v2.3C259.4,41.6,257.7,43.5,254.9,43.5z M268.7,46.5h4.6V34.9
	c0-2.5,1.9-4.3,4.4-4.3c0.8,0,1.8,0.1,2.1,0.3v-4.3c-0.4-0.1-1.2-0.1-1.7-0.1c-2.2,0-4.1,1.3-4.8,3.6h-0.2v-3.3h-4.5V46.5z
	 M290.7,46.8c4.9,0,8.1-2.9,8.4-7.1h-4.4c-0.4,2.1-1.9,3.3-3.9,3.3c-2.9,0-4.8-2.4-4.8-6.4c0-4,1.9-6.3,4.8-6.3
	c2.2,0,3.6,1.4,3.9,3.3h4.4c-0.3-4.3-3.6-7.1-8.4-7.1c-5.8,0-9.4,4.2-9.4,10.2C281.3,42.7,284.9,46.8,290.7,46.8z M307.6,35
	c0-2.8,1.8-4.5,4.2-4.5c2.4,0,3.9,1.5,3.9,4.2v11.8h4.6V34c0-4.7-2.7-7.4-6.8-7.4c-3,0-4.9,1.4-5.8,3.6h-0.2v-9.9h-4.5v26.2h4.6V35z
	"/>
</svg>
